<svg width="500" height="400" xmlns="http://www.w3.org/2000/svg">
 <defs>
  <linearGradient id="linearGradientSjx4p4blg3q" y2="0.5" x2="1" y1="0.5" x1="0">
   <stop stop-color="#7b8a74" offset="0%"/>
   <stop stop-color="#7b8a74" offset="100%"/>
  </linearGradient>
  <linearGradient id="linearGradientSjx4p4blg3t" y2="0.5" x2="1" y1="0.5" x1="0">
   <stop stop-color="#6b7a64" offset="0%"/>
   <stop stop-color="#6b7a64" offset="100%"/>
  </linearGradient>
  <linearGradient id="linearGradientSjx4p4blg3z" y2="0.5" x2="1" y1="0.5" x1="0">
   <stop stop-color="#9ea899" offset="0%"/>
   <stop stop-color="#9ea899" offset="100%"/>
  </linearGradient>
  <linearGradient id="linearGradientSjx4p4blg42" y2="0.5" x2="1" y1="0.5" x1="0">
   <stop stop-color="#949e8e" offset="0%"/>
   <stop stop-color="#949e8e" offset="100%"/>
  </linearGradient>
  <linearGradient id="linearGradientSjx4p4blg5c" y2="0.5" x2="1" y1="0.5" x1="0">
   <stop stop-color="#7b8a74" offset="0%"/>
   <stop stop-color="#7b8a74" offset="100%"/>
  </linearGradient>
  <linearGradient id="linearGradientSjx4p4blg64" y2="0.5" x2="1" y1="0.5" x1="0">
   <stop stop-color="#9ea899" offset="0%"/>
   <stop stop-color="#9ea899" offset="100%"/>
  </linearGradient>
  <linearGradient id="linearGradientSjx4p4blg6p" y2="0.5" x2="1" y1="0.5" x1="0">
   <stop stop-color="#000000" offset="0%"/>
   <stop stop-color="#000000" offset="100%"/>
  </linearGradient>
  <linearGradient id="linearGradientSjx4p4blg6v" y2="0.5" x2="1" y1="0.5" x1="0">
   <stop stop-color="#000000" offset="0%"/>
   <stop stop-color="#000000" offset="100%"/>
  </linearGradient>
 </defs>
 <g>
  <title>background</title>
  <rect fill="none" id="canvas_background" height="402" width="502" y="-1" x="-1"/>
 </g>
 <g>
  <title>Layer 1</title>
  <g id="svg_13" transform="matrix(1,0,0,1,685,412) " class="selector-part">
   <rect id="svg_14" fill="rgba(255,255,255,0)" height="0" width="0" y="11" x="2"/>
  </g>
  <g id="svg_15" transform="matrix(3.544,0,0,3.544,630.4202,455.7525) " class="svg-clip svg-visible">
   <rect id="svg_16" class="svg-hitbox" fill="none" height="34" width="15" y="-57.562075" x="-161.399548"/>
   <g id="svg_1">
    <svg y="-57.562075" x="-161.399548" id="svg_17" viewBox="42.336,69.591,15.238,34.409000000000006" height="34.409" width="15.238">
     <g id="svg_18"/>
     <g id="svg_19"/>
     <g id="svg_20">
      <rect id="svg_21" fill="url('#linearGradientSjx4p4blg3q')" height="24.409" width="5.238" y="74.591" x="47.336"/>
     </g>
    </svg>
   </g>
  </g>
  <g id="svg_22" transform="matrix(3.544,0,0,3.544,559.5408,227.1011) " class="svg-clip svg-visible">
   <rect id="svg_23" class="svg-hitbox" fill="none" height="75" width="55" y="-57.562075" x="-161.399548"/>
   <g id="svg_2">
    <svg y="-57.562075" x="-161.399548" id="svg_24" viewBox="22.142,4.371,55.62700000000001,75.99600000000001" height="75.996" width="55.627">
     <g id="svg_25"/>
     <g id="svg_26"/>
     <g id="svg_27">
      <polygon id="svg_28" fill="url('#linearGradientSjx4p4blg3t')" points="27.142,75.367 49.955,9.371 72.769,75.367 "/>
     </g>
    </svg>
   </g>
  </g>
  <g id="svg_29" transform="matrix(3.544,0,0,3.544,559.5408,203.1011) " class="svg-clip svg-visible">
   <rect id="svg_30" class="svg-hitbox" fill="none" height="75" width="55" y="-57.562075" x="-161.399548"/>
   <g id="svg_3">
    <svg y="-57.562075" x="-161.399548" id="svg_31" viewBox="22.142,-4.99,55.62700000000001,75.996" height="75.996" width="55.627">
     <g id="svg_32"/>
     <g id="svg_33"/>
     <g id="svg_34">
      <polygon id="svg_35" fill="url('#linearGradientSjx4p4blg5c')" points="27.142,66.006 49.955,0.01 72.769,66.006 "/>
     </g>
    </svg>
   </g>
  </g>
  <g id="svg_36" transform="matrix(3.544,0,0,3.544,673.4202,468.7525) " class="svg-clip svg-visible">
   <rect id="svg_37" class="svg-hitbox" fill="none" height="34" width="15" y="-57.562075" x="-161.399548"/>
   <g id="svg_4">
    <svg y="-57.562075" x="-161.399548" id="svg_38" viewBox="42.336,69.591,15.238,34.409000000000006" height="34.409" width="15.238">
     <g id="svg_39"/>
     <g id="svg_40"/>
     <g id="svg_41">
      <rect id="svg_42" fill="url('#linearGradientSjx4p4blg3z')" height="24.409" width="5.238" y="74.591" x="47.336"/>
     </g>
    </svg>
   </g>
  </g>
  <g id="svg_43" transform="matrix(3.544,0,0,3.544,602.5408,240.1011) " class="svg-clip svg-visible">
   <rect id="svg_44" class="svg-hitbox" fill="none" height="75" width="55" y="-57.562075" x="-161.399548"/>
   <g id="svg_5">
    <svg y="-57.562075" x="-161.399548" id="svg_45" viewBox="22.142,4.371,55.62700000000001,75.99600000000001" height="75.996" width="55.627">
     <g id="svg_46"/>
     <g id="svg_47"/>
     <g id="svg_48">
      <polygon id="svg_49" fill="url('#linearGradientSjx4p4blg42')" points="27.142,75.367 49.955,9.371 72.769,75.367 "/>
     </g>
    </svg>
   </g>
  </g>
  <g id="svg_50" transform="matrix(3.544,0,0,3.544,602.5408,216.1011) " class="svg-clip svg-visible">
   <rect id="svg_51" class="svg-hitbox" fill="none" height="75" width="55" y="-57.562075" x="-161.399548"/>
   <g id="svg_6">
    <svg y="-57.562075" x="-161.399548" id="svg_52" viewBox="22.142,-4.99,55.62700000000001,75.996" height="75.996" width="55.627">
     <g id="svg_53"/>
     <g id="svg_54"/>
     <g id="svg_55">
      <polygon id="svg_56" fill="url('#linearGradientSjx4p4blg64')" points="27.142,66.006 49.955,0.01 72.769,66.006 "/>
     </g>
    </svg>
   </g>
  </g>
  <g id="svg_57" transform="matrix(1.2879,0,0,1.2879,869,307) " class="svg-text svg-visible">
   <path id="svg_58" d="m-586.683852,-78.397395c122.55,-1 162.55,-1 285.1,0" fill="none"/>
   <path id="svg_59" fill="url('#linearGradientSjx4p4blg6p')" d="m-560.683852,-83.397395l0,0l-15.5,0q-1.9,0 -2.75,-0.85q-0.85,-0.85 -0.85,-2.75l0,0l0,-64.8q0,-1.9 0.85,-2.75q0.85,-0.85 2.75,-0.85l0,0l15.5,0q1.9,0 2.75,0.85q0.85,0.85 0.85,2.75l0,0l0,21.7l16.7,0l0,-21.7q0,-1.9 0.85,-2.75q0.85,-0.85 2.75,-0.85l0,0l15.5,0q1.9,0 2.75,0.85q0.85,0.85 0.85,2.75l0,0l0,64.8q0,1.9 -0.85,2.75q-0.85,0.85 -2.75,0.85l0,0l-15.5,0q-1.9,0 -2.75,-0.85q-0.85,-0.85 -0.85,-2.75l0,0l0,-22.2l-16.7,0l0,22.2q0,1.9 -0.85,2.75q-0.85,0.85 -2.75,0.85zm117.8,-53l0,34.1q0,4.6 -1.35,8.35q-1.35,3.75 -4.8,6.4q-3.45,2.65 -9.5,4.15q-6.05,1.5 -15.35,1.5l0,0q-9.3,0 -15.4,-1.5q-6.1,-1.5 -9.55,-4.15q-3.45,-2.65 -4.8,-6.4q-1.35,-3.75 -1.35,-8.35l0,0l0,-34.1q0,-4.6 1.35,-8.35q1.35,-3.75 4.8,-6.45q3.45,-2.7 9.55,-4.2q6.1,-1.5 15.4,-1.5l0,0q9.3,0 15.35,1.5q6.05,1.5 9.5,4.2q3.45,2.7 4.8,6.45q1.35,3.75 1.35,8.35l0,0zm-39.4,3.6l0,26.9q0,2 1.5,3.35q1.5,1.35 6.9,1.35l0,0q5.4,0 6.9,-1.35q1.5,-1.35 1.5,-3.35l0,0l0,-26.9q0,-1.9 -1.5,-3.25q-1.5,-1.35 -6.9,-1.35l0,0q-5.4,0 -6.9,1.35q-1.5,1.35 -1.5,3.25l0,0zm106.6,49.4l0,0l-50.9,0q-1.9,0 -2.75,-0.85q-0.85,-0.85 -0.85,-2.75l0,0l0,-64.8q0,-1.9 0.85,-2.75q0.85,-0.85 2.75,-0.85l0,0l15.5,0q1.9,0 2.75,0.85q0.85,0.85 0.85,2.75l0,0l0,49.5l13.7,0l0,-16.2q0,-1.9 0.85,-2.75q0.85,-0.85 2.75,-0.85l0,0l14.5,0q1.9,0 2.75,0.85q0.85,0.85 0.85,2.75l0,0l0,31.5q0,1.9 -0.85,2.75q-0.85,0.85 -2.75,0.85zm65.9,0l0,0l-49.6,0q-1.9,0 -2.75,-0.85q-0.85,-0.85 -0.85,-2.75l0,0l0,-13.4q0,-1.9 0.6,-3.35q0.6,-1.45 1.9,-2.85l0,0l24.3,-29.5l-21.4,0q-1.9,0 -2.75,-0.85q-0.85,-0.85 -0.85,-2.75l0,0l0,-12.1q0,-1.9 0.85,-2.75q0.85,-0.85 2.75,-0.85l0,0l46,0q1.9,0 2.75,0.85q0.85,0.85 0.85,2.75l0,0l0,14.9q0,2 -0.6,3.45q-0.6,1.45 -1.9,2.85l0,0l-23.2,28.1l23.9,0q1.9,0 2.75,0.85q0.85,0.85 0.85,2.75l0,0l0,11.9q0,1.9 -0.85,2.75q-0.85,0.85 -2.75,0.85z"/>
   <rect id="svg_60" height="0" width="0" y="-158.397395" x="-444.133852"/>
  </g>
  <g id="svg_61" transform="matrix(1.2879,0,0,1.2879,867,416) " class="svg-text svg-visible">
   <path id="svg_62" d="m-585.533852,-78.397395c121.4,-1 161.4,-1 282.8,0" fill="none"/>
   <path id="svg_63" fill="url('#linearGradientSjx4p4blg6v')" d="m-545.233852,-83.397395l0,0l-31.6,0q-1.9,0 -2.75,-0.85q-0.85,-0.85 -0.85,-2.75l0,0l0,-11.7q0,-1.9 0.85,-2.75q0.85,-0.85 2.75,-0.85l0,0l26.9,0q1.3,0 1.95,-0.85q0.65,-0.85 0.65,-2.05l0,0q0,-1.7 -0.65,-2.5q-0.65,-0.8 -1.95,-0.9l0,0l-15,-2.1q-7,-1 -11.25,-4.6q-4.25,-3.6 -4.25,-12l0,0l0,-10.5q0,-8.5 5.5,-13.05q5.5,-4.55 15.2,-4.55l0,0l28,0q1.9,0 2.75,0.85q0.85,0.85 0.85,2.75l0,0l0,11.9q0,1.9 -0.85,2.75q-0.85,0.85 -2.75,0.85l0,0l-23.3,0q-1.3,0 -2,0.85q-0.7,0.85 -0.7,2.15l0,0q0,1.3 0.7,2.2q0.7,0.9 2,1l0,0l14.9,2q7,1 11.3,4.6q4.3,3.6 4.3,12l0,0l0,10.5q0,8.5 -5.55,13.05q-5.55,4.55 -15.15,4.55zm50.7,0l0,0l-15.5,0q-1.9,0 -2.75,-0.85q-0.85,-0.85 -0.85,-2.75l0,0l0,-64.8q0,-1.9 0.85,-2.75q0.85,-0.85 2.75,-0.85l0,0l15.5,0q1.9,0 2.75,0.85q0.85,0.85 0.85,2.75l0,0l0,21.7l16.7,0l0,-21.7q0,-1.9 0.85,-2.75q0.85,-0.85 2.75,-0.85l0,0l15.5,0q1.9,0 2.75,0.85q0.85,0.85 0.85,2.75l0,0l0,64.8q0,1.9 -0.85,2.75q-0.85,0.85 -2.75,0.85l0,0l-15.5,0q-1.9,0 -2.75,-0.85q-0.85,-0.85 -0.85,-2.75l0,0l0,-22.2l-16.7,0l0,22.2q0,1.9 -0.85,2.75q-0.85,0.85 -2.75,0.85zm117.8,-53l0,34.1q0,4.6 -1.35,8.35q-1.35,3.75 -4.8,6.4q-3.45,2.65 -9.5,4.15q-6.05,1.5 -15.35,1.5l0,0q-9.3,0 -15.4,-1.5q-6.1,-1.5 -9.55,-4.15q-3.45,-2.65 -4.8,-6.4q-1.35,-3.75 -1.35,-8.35l0,0l0,-34.1q0,-4.6 1.35,-8.35q1.35,-3.75 4.8,-6.45q3.45,-2.7 9.55,-4.2q6.1,-1.5 15.4,-1.5l0,0q9.3,0 15.35,1.5q6.05,1.5 9.5,4.2q3.45,2.7 4.8,6.45q1.35,3.75 1.35,8.35l0,0zm-39.4,3.6l0,26.9q0,2 1.5,3.35q1.5,1.35 6.9,1.35l0,0q5.4,0 6.9,-1.35q1.5,-1.35 1.5,-3.35l0,0l0,-26.9q0,-1.9 -1.5,-3.25q-1.5,-1.35 -6.9,-1.35l0,0q-5.4,0 -6.9,1.35q-1.5,1.35 -1.5,3.25l0,0zm71.2,49.4l0,0l-15.5,0q-1.9,0 -2.75,-0.85q-0.85,-0.85 -0.85,-2.75l0,0l0,-64.8q0,-1.9 0.85,-2.75q0.85,-0.85 2.75,-0.85l0,0l30.6,0q13.6,0 18.6,5.4q5,5.4 5,14.1l0,0l0,12.8q0,8.7 -5,14.1q-5,5.4 -18.6,5.4l0,0l-11.5,0l0,16.6q0,1.9 -0.85,2.75q-0.85,0.85 -2.75,0.85zm12.4,-53.3l-9,0l0,15.1l9,0q2.9,0 3.8,-1.5q0.9,-1.5 0.9,-3.4l0,0l0,-5.3q0,-1.9 -0.9,-3.4q-0.9,-1.5 -3.8,-1.5l0,0z"/>
   <rect id="svg_64" height="0" width="0" y="-158.397395" x="-444.133852"/>
  </g>
  <g id="svg_65">
   <rect id="svg_66" stroke="#ff8800" fill="rgba(255,136,0,0.1)" height="0" width="0" y="11" x="2"/>
  </g>
  <g id="svg_67" class="selector-part">
   <rect id="svg_68" stroke="#3399ff" fill="rgba(168,202,236,0.5)" height="0" width="0" y="216" x="1120"/>
  </g>
 </g>
</svg>